<svg width="113" height="14" viewBox="0 0 113 14" fill="none" xmlns="http://www.w3.org/2000/svg">
<path fill-rule="evenodd" clip-rule="evenodd" d="M65.8174 0.343384L68.1252 0V13.4297H66.123L65.9698 12.3421C65.7985 12.5511 64.8634 13.6198 63.376 13.6198C61.296 13.6198 59.9036 11.9988 59.9036 8.96567C59.9036 5.93259 61.1247 4.1583 63.2612 4.1583C64.4669 4.1583 65.1701 4.73436 65.7935 5.24511L65.8174 5.26467V0.343384ZM63.9865 11.7127C64.997 11.7127 65.6264 11.026 65.8174 10.7973V6.73491C65.5699 6.54396 64.9405 6.06699 64.0816 6.06699C63.0137 6.06699 62.327 6.92586 62.327 8.90912C62.327 10.8924 62.9761 11.7127 63.9865 11.7127Z" fill="white"/>
<path d="M56.3708 5.76215C56.7727 5.31808 57.8056 4.17654 59.6037 4.15912V6.21942C57.7211 6.23766 56.8568 7.06006 56.4738 7.42439C56.461 7.43658 56.4488 7.44826 56.437 7.45937V13.4297H54.1292V4.34925H56.1133L56.2846 5.85637C56.3091 5.83033 56.3378 5.79859 56.3708 5.76215Z" fill="white"/>
<path fill-rule="evenodd" clip-rule="evenodd" d="M48.9809 4.15994C51.8616 4.15994 51.9189 5.74327 51.9189 7.74621V13.4313H49.9922L49.8201 12.4011C49.6103 12.6298 48.599 13.6214 47.1878 13.6214C45.7765 13.6214 44.6702 12.7249 44.6702 10.7981C44.6702 8.14485 47.2636 8.01855 49.2845 7.92013C49.4284 7.91313 49.5693 7.90627 49.7062 7.89864V7.42167C49.7062 6.37267 49.5341 5.89571 48.1991 5.89571C47.2323 5.89571 46.1614 6.19155 45.8857 6.26772C45.8841 6.26815 45.8826 6.26859 45.881 6.26901C45.8703 6.27198 45.8608 6.27458 45.8528 6.27679L45.452 4.96062C45.6241 4.88441 47.264 4.15994 48.9809 4.15994ZM49.6341 11.3149C49.663 11.2906 49.6871 11.2703 49.7062 11.2554V9.04271C47.7606 9.17629 46.8829 9.48116 46.8829 10.7023C46.8829 11.6939 47.4746 11.9611 48.104 11.9611C48.8666 11.9611 49.4033 11.5092 49.6341 11.3149Z" fill="white"/>
<path fill-rule="evenodd" clip-rule="evenodd" d="M40.8528 0.344203L43.1606 0.000819081V13.4305H41.1577L41.0052 12.343C40.8331 12.5519 39.8989 13.6206 38.4106 13.6206C36.3315 13.6206 34.9391 11.9996 34.9391 8.96649C34.9391 5.93341 36.1602 4.15912 38.2967 4.15912C39.5024 4.15912 40.2055 4.73518 40.8289 5.24593L40.8528 5.26549V0.344203ZM39.0212 11.7136C40.0325 11.7136 40.6619 11.0268 40.8528 10.7981L40.852 10.799V6.73573C40.6045 6.54478 39.9743 6.06781 39.1162 6.06781C38.0484 6.06781 37.3616 6.92668 37.3616 8.90994C37.3616 10.8932 38.0099 11.7136 39.0212 11.7136Z" fill="white"/>
<path d="M30.5783 4.15912C33.0771 4.15912 33.1533 6.04814 33.1533 7.51674V13.4305H30.8447V7.93634C30.8447 6.79227 30.7308 6.06699 29.7006 6.06699C28.8966 6.06699 28.0398 6.61018 27.6509 6.85678C27.6339 6.86755 27.6178 6.87777 27.6026 6.88734V13.4305H25.294V4.35007H27.2781L27.4502 5.5515C28.0222 5.09339 29.2622 4.15912 30.5783 4.15912Z" fill="white"/>
<path fill-rule="evenodd" clip-rule="evenodd" d="M20.3039 4.15994C23.1845 4.15994 23.2419 5.74327 23.2419 7.74621V13.4305L23.2427 13.4313H21.316L21.1439 12.4011C20.9341 12.6298 19.9236 13.6214 18.5116 13.6214C17.0995 13.6214 15.9931 12.7249 15.9931 10.7981C15.9931 8.14485 18.5866 8.01855 20.6075 7.92013C20.7513 7.91313 20.8923 7.90627 21.0292 7.89864V7.42167C21.0292 6.37267 20.8571 5.89571 19.5221 5.89571C18.5553 5.89571 17.4844 6.19155 17.2087 6.26772C17.2071 6.26815 17.2055 6.26859 17.204 6.26901C17.1933 6.27198 17.1838 6.27458 17.1757 6.27679L16.775 4.96062C16.9463 4.88441 18.587 4.15994 20.3039 4.15994ZM20.9571 11.3149C20.9859 11.2906 21.01 11.2703 21.0292 11.2554V9.04271C19.0836 9.17629 18.2059 9.48116 18.2059 10.7023C18.2059 11.6939 18.7976 11.9611 19.427 11.9611C20.1896 11.9611 20.7263 11.5092 20.9571 11.3149Z" fill="white"/>
<path d="M14.9925 11.6562L15.4695 12.9724H15.4678C15.4499 12.9805 15.4261 12.9922 15.3964 13.0066C15.0787 13.1617 14.0977 13.6403 12.7019 13.6403C11.843 13.6403 11.2522 13.4305 10.8703 13.0871C10.2023 12.4954 10.1646 11.5226 10.1646 10.2827V5.89489H8.63868V4.63609L10.1646 4.35007L10.4892 1.8128L12.4733 1.46942V4.35007H15.2015L14.9728 5.89489H12.4741V10.5875C12.4741 11.3317 12.5315 11.9422 13.4854 11.9422C14.1122 11.9422 14.6816 11.7567 14.9108 11.682C14.9468 11.6703 14.9744 11.6613 14.9925 11.6562Z" fill="white"/>
<path d="M5.26467 6.06699C7.15287 6.67672 8.50755 7.44052 8.50755 9.61474L8.50837 9.61556C8.50837 12.1143 6.82915 13.6026 3.85343 13.6026C1.54482 13.6026 0.0950656 12.7249 0 12.6298L0.801501 11.0661C0.812585 11.0716 0.826816 11.079 0.844105 11.0879C1.12468 11.2321 2.21066 11.7906 3.71985 11.7906C5.18845 11.7906 6.12354 11.0268 6.12354 9.95894C6.12354 9.44428 5.93258 9.08122 5.53183 8.77636C5.08353 8.43605 4.42594 8.21886 3.72326 7.98678C2.06365 7.43865 0.152432 6.80742 0.152432 4.27467C0.152432 1.92836 1.83083 0.535973 4.55905 0.535973C6.19975 0.535973 7.70687 1.07031 8.12647 1.28011L7.59214 2.88229C7.58087 2.87852 7.56822 2.87424 7.55421 2.8695C7.21257 2.75401 6.06715 2.36681 4.71149 2.36681C3.54775 2.36681 2.5176 2.88147 2.5176 4.10257C2.5176 5.20344 3.5217 5.51908 5.15536 6.03262C5.19149 6.04397 5.22793 6.05543 5.26467 6.06699Z" fill="white"/>
<path d="M108.313 8.68703L112.128 13.437L112.129 13.4379H109.478L106.178 9.16482V13.4379H103.869V0.351578L106.178 0.00819456V8.40101L109.439 4.35663H111.881L108.313 8.68703Z" fill="white"/>
<path d="M99.2264 4.16568C101.726 4.16568 101.802 6.0547 101.802 7.5233V13.437H99.4935V7.9429C99.4935 6.79883 99.3788 6.07355 98.3486 6.07355C97.5462 6.07355 96.6913 6.61459 96.3005 6.86187C96.2983 6.86328 96.2961 6.86469 96.2939 6.86608C96.2784 6.87585 96.2637 6.88514 96.2498 6.8939V13.437H93.942V4.35663H95.9261L96.0982 5.55806C96.6702 5.09994 97.9102 4.16568 99.2264 4.16568Z" fill="white"/>
<path fill-rule="evenodd" clip-rule="evenodd" d="M88.965 4.15994C91.8449 4.15994 91.9022 5.74327 91.9022 7.74621V13.4305L91.9039 13.4313H89.9771L89.805 12.4011C89.5952 12.6298 88.5848 13.6214 87.1727 13.6214C85.7607 13.6214 84.6543 12.7249 84.6543 10.7981C84.6543 8.14485 87.2477 8.01855 89.2686 7.92013C89.4125 7.91313 89.5534 7.90627 89.6903 7.89864V7.42167C89.6903 6.37267 89.5182 5.89571 88.1832 5.89571C87.2164 5.89571 86.1456 6.19154 85.8698 6.26771C85.8682 6.26815 85.8667 6.26858 85.8651 6.26901C85.8544 6.27197 85.845 6.27458 85.8369 6.27679L85.4361 4.96062C85.6074 4.88441 87.2481 4.15994 88.965 4.15994ZM89.6191 11.3136C89.6472 11.2899 89.6708 11.27 89.6895 11.2554H89.6903V9.04271C87.7447 9.17629 86.867 9.48116 86.867 10.7023C86.867 11.6939 87.4579 11.9611 88.0873 11.9611C88.8516 11.9611 89.3896 11.5072 89.6191 11.3136Z" fill="white"/>
<path fill-rule="evenodd" clip-rule="evenodd" d="M80.4108 6.88816C82.299 7.07911 83.348 8.05189 83.348 9.97861L83.3471 9.97779C83.3471 11.4849 82.6038 12.5339 81.2877 13.0486C80.5247 13.3543 79.8568 13.4305 77.6252 13.4305H74.497V0.707256H78.0259C80.3534 0.707256 83.0619 0.745774 83.0619 3.87392C83.0619 5.57199 82.1654 6.60214 80.4108 6.88816ZM79.9338 11.4661C80.5058 11.18 80.8869 10.608 80.8869 9.67293H80.8877C80.8877 8.83373 80.5632 8.29939 80.01 8.01338C79.6092 7.80358 79.2085 7.74621 78.0833 7.74621H76.8622V11.7332H77.7399C78.7701 11.7332 79.3995 11.7136 79.9338 11.4661ZM77.835 6.12517C80.0477 6.12517 80.7345 5.59084 80.7345 4.14109H80.7353C80.7353 3.51169 80.5058 2.95851 80.0674 2.69134C79.6478 2.44384 79.2273 2.38647 78.0833 2.38647H76.8622V6.12517H77.835Z" fill="white"/>
</svg>
