<svg width="40" height="40" viewBox="0 0 40 40" fill="none" xmlns="http://www.w3.org/2000/svg">
<path fill-rule="evenodd" clip-rule="evenodd" d="M20 40C28.7639 40 33.6359 40 36.8179 36.8179C40 33.6359 40 28.7639 40 20C40 11.2361 40 6.36415 36.8179 3.18207C33.6359 -4.76837e-07 28.7639 0 20 0C11.2361 0 6.36415 -4.76837e-07 3.18207 3.18207C-4.76837e-07 6.36415 0 11.2361 0 20C0 28.7639 -4.76837e-07 33.6359 3.18207 36.8179C6.36415 40 11.2361 40 20 40Z" fill="url(#paint0_linear_6920_40569)"/>
<path d="M12.5 22C12.2239 22 12 22.2239 12 22.5C12 22.7761 12.2239 23 12.5 23H16.5C16.7761 23 17 22.7761 17 22.5C17 22.2239 16.7761 22 16.5 22H12.5Z" fill="white"/>
<path fill-rule="evenodd" clip-rule="evenodd" d="M12.5 13C11.1193 13 10 14.1193 10 15.5V24.5C10 25.8807 11.1193 27 12.5 27H27.5C28.8807 27 30 25.8807 30 24.5V15.5C30 14.1193 28.8807 13 27.5 13H12.5ZM12.5 14C11.6716 14 11 14.6716 11 15.5V17H29V15.5C29 14.6716 28.3284 14 27.5 14H12.5ZM27.5 26C28.3284 26 29 25.3284 29 24.5V20H11V24.5C11 25.3284 11.6716 26 12.5 26H27.5Z" fill="white"/>
<defs>
<linearGradient id="paint0_linear_6920_40569" x1="0.525452" y1="2.48384e-07" x2="24.8608" y2="1.5595" gradientUnits="userSpaceOnUse">
<stop stop-color="#B150C5"/>
<stop offset="1" stop-color="#665EC7"/>
<stop offset="1" stop-color="#665EC7"/>
</linearGradient>
</defs>
</svg>
