<svg width="40" height="40" viewBox="0 0 40 40" fill="none" xmlns="http://www.w3.org/2000/svg">
<path fill-rule="evenodd" clip-rule="evenodd" d="M20 40C28.7639 40 33.6359 40 36.8179 36.8179C40 33.6359 40 28.7639 40 20C40 11.2361 40 6.36415 36.8179 3.18207C33.6359 -4.76837e-07 28.7639 0 20 0C11.2361 0 6.36415 -4.76837e-07 3.18207 3.18207C-4.76837e-07 6.36415 0 11.2361 0 20C0 28.7639 -4.76837e-07 33.6359 3.18207 36.8179C6.36415 40 11.2361 40 20 40Z" fill="url(#paint0_linear_6920_40409)"/>
<path d="M25 21C25.5523 21 26 20.5523 26 20C26 19.4477 25.5523 19 25 19C24.4477 19 24 19.4477 24 20C24 20.5523 24.4477 21 25 21Z" fill="white"/>
<path fill-rule="evenodd" clip-rule="evenodd" d="M10 24.5C10 25.8549 11.047 27 12.3947 27H26.6053C27.953 27 29 25.8549 29 24.5V23H29.5C29.7761 23 30 22.7761 30 22.5V17.5C30 17.2239 29.7761 17 29.5 17H29V15.5C29 14.1451 27.953 13 26.6053 13H12.3947C11.047 13 10 14.1451 10 15.5V24.5ZM11 15.5C11 14.6458 11.6496 14 12.3947 14H13V26H12.3947C11.6496 26 11 25.3542 11 24.5V15.5ZM23 20C23 18.8954 23.8954 18 25 18H29V22H25C23.8954 22 23 21.1046 23 20ZM22 20C22 18.3431 23.3431 17 25 17H28V15.5C28 14.6458 27.3504 14 26.6053 14H14V26H26.6053C27.3504 26 28 25.3542 28 24.5V23H25C23.3431 23 22 21.6569 22 20Z" fill="white"/>
<defs>
<linearGradient id="paint0_linear_6920_40409" x1="0.525452" y1="2.48384e-07" x2="24.8608" y2="1.5595" gradientUnits="userSpaceOnUse">
<stop stop-color="#00BFFF"/>
<stop offset="1" stop-color="#006EFC"/>
</linearGradient>
</defs>
</svg>
