<svg width="40" height="40" viewBox="0 0 40 40" fill="none" xmlns="http://www.w3.org/2000/svg">
<path fill-rule="evenodd" clip-rule="evenodd" d="M20 40C28.7639 40 33.6359 40 36.8179 36.8179C40 33.6359 40 28.7639 40 20C40 11.2361 40 6.36415 36.8179 3.18207C33.6359 -4.76837e-07 28.7639 0 20 0C11.2361 0 6.36415 -4.76837e-07 3.18207 3.18207C-4.76837e-07 6.36415 0 11.2361 0 20C0 28.7639 -4.76837e-07 33.6359 3.18207 36.8179C6.36415 40 11.2361 40 20 40Z" fill="url(#paint0_linear_6920_40449)"/>
<path fill-rule="evenodd" clip-rule="evenodd" d="M10 15C10 14.4477 10.4477 14 11 14H28C28.5523 14 29 14.4477 29 15V18.5C29 18.7761 28.7761 19 28.5 19C28.2239 19 28 18.7761 28 18.5V18C27.2044 18 26.4413 17.6839 25.8787 17.1213C25.3161 16.5587 25 15.7956 25 15H14C14 15.7956 13.6839 16.5587 13.1213 17.1213C12.5587 17.6839 11.7956 18 11 18V21C11.7956 21 12.5587 21.3161 13.1213 21.8787C13.6839 22.4413 14 23.2044 14 24H20C20.2761 24 20.5 24.2239 20.5 24.5C20.5 24.7761 20.2761 25 20 25H11C10.4477 25 10 24.5523 10 24V15ZM26.5858 16.4142C26.2107 16.0391 26 15.5304 26 15H28V17C27.4696 17 26.9609 16.7893 26.5858 16.4142ZM11 15L13 15C13 15.5304 12.7893 16.0391 12.4142 16.4142C12.0391 16.7893 11.5304 17 11 17V15ZM12.4142 22.5858C12.7893 22.9609 13 23.4696 13 24H11V22C11.5304 22 12.0391 22.2107 12.4142 22.5858Z" fill="white"/>
<path d="M15 18.5C15 18.2239 14.7761 18 14.5 18C14.2239 18 14 18.2239 14 18.5V20.5C14 20.7761 14.2239 21 14.5 21C14.7761 21 15 20.7761 15 20.5V18.5Z" fill="white"/>
<path fill-rule="evenodd" clip-rule="evenodd" d="M23.0752 20.7952C23.9769 20.2942 25.1887 20 26.5 20C27.8113 20 29.0231 20.2942 29.9248 20.7952C30.8096 21.2867 31.5 22.0456 31.5 23C31.5 23.1138 31.4902 23.2248 31.4714 23.3329C31.4899 23.3852 31.5 23.4414 31.5 23.5V27.5C31.5 27.9388 31.2978 28.3192 31.0086 28.6232C30.7218 28.9245 30.3304 29.1732 29.885 29.3711C28.9931 29.7676 27.7959 30 26.5 30C25.2041 30 24.0069 29.7676 23.115 29.3711C22.6696 29.1732 22.2782 28.9245 21.9914 28.6232C21.7022 28.3192 21.5 27.9388 21.5 27.5V23.5C21.5 23.4414 21.5101 23.3852 21.5286 23.3329C21.5098 23.2248 21.5 23.1138 21.5 23C21.5 22.0456 22.1904 21.2867 23.0752 20.7952ZM23.5608 21.6693C22.8169 22.0826 22.5 22.5737 22.5 23C22.5 23.4263 22.8169 23.9174 23.5608 24.3307C24.2878 24.7346 25.326 25 26.5 25C27.674 25 28.7122 24.7346 29.4392 24.3307C30.1831 23.9174 30.5 23.4263 30.5 23C30.5 22.5737 30.1831 22.0826 29.4392 21.6693C28.7122 21.2654 27.674 21 26.5 21C25.326 21 24.2878 21.2654 23.5608 21.6693ZM29.9248 25.2048C30.1289 25.0915 30.3227 24.9638 30.5 24.8229V25.5C30.5 25.6135 30.4504 25.7592 30.2842 25.9338C30.1155 26.111 29.8479 26.2933 29.4789 26.4573C28.7422 26.7847 27.6894 27 26.5 27C25.3106 27 24.2578 26.7847 23.5211 26.4573C23.1521 26.2933 22.8845 26.111 22.7158 25.9338C22.5496 25.7592 22.5 25.6135 22.5 25.5V24.8229C22.6773 24.9638 22.8711 25.0915 23.0752 25.2048C23.9769 25.7058 25.1887 26 26.5 26C27.8113 26 29.0231 25.7058 29.9248 25.2048ZM29.885 27.3711C30.1053 27.2732 30.3123 27.163 30.5 27.04V27.5C30.5 27.6135 30.4504 27.7592 30.2842 27.9338C30.1155 28.111 29.8479 28.2933 29.4789 28.4573C28.7422 28.7847 27.6894 29 26.5 29C25.3106 29 24.2578 28.7847 23.5211 28.4573C23.1521 28.2933 22.8845 28.111 22.7158 27.9338C22.5496 27.7592 22.5 27.6135 22.5 27.5V27.04C22.6877 27.163 22.8947 27.2732 23.115 27.3711C24.0069 27.7676 25.2041 28 26.5 28C27.7959 28 28.9931 27.7676 29.885 27.3711Z" fill="white"/>
<path d="M24 18C24.2761 18 24.5 18.2239 24.5 18.5V19.5C24.5 19.7761 24.2761 20 24 20C23.7239 20 23.5 19.7761 23.5 19.5V18.5C23.5 18.2239 23.7239 18 24 18Z" fill="white"/>
<path fill-rule="evenodd" clip-rule="evenodd" d="M19.5 17C18.1193 17 17 18.1193 17 19.5C17 20.8807 18.1193 22 19.5 22C20.8807 22 22 20.8807 22 19.5C22 18.1193 20.8807 17 19.5 17ZM18 19.5C18 18.6716 18.6716 18 19.5 18C20.3284 18 21 18.6716 21 19.5C21 20.3284 20.3284 21 19.5 21C18.6716 21 18 20.3284 18 19.5Z" fill="white"/>
<defs>
<linearGradient id="paint0_linear_6920_40449" x1="0.525452" y1="2.48384e-07" x2="24.8608" y2="1.5595" gradientUnits="userSpaceOnUse">
<stop stop-color="#B5BD00"/>
<stop offset="1" stop-color="#00AF43"/>
</linearGradient>
</defs>
</svg>
